#!OML:ASF H:\Terrain\Patient Classification 1\Animal2\Wednesday\Animal2.ASF
:FULLY-SPECIFIED
:DEGREES
1000
root 5.98854 16.4014 -20.947 45.78 9.89092 8.90045
lowerback 30.6178 -0.468374 1.95063
upperback -1.75014 0.409522 1.52787
thorax -18.3147 0.0821236 0.453509
lowerneck 14.1997 17.6874 16.7311
upperneck -26.8257 21.6611 -41.0797
head -2.52433 14.422 -17.4956
rclavicle -1.74931e-014 0
rhumerus -43.7043 -23.2068 -33.4759
rradius 26.9021
rwrist -1.68194
rhand -43.3108 17.0487
rfingers 7.12502
rthumb -16.1577 -12.2978
lclavicle -1.74931e-014 0
lhumerus -48.4331 5.85647 43.3749
lradius 32.2927
lwrist 28.3285
lhand -38.2869 33.3367
lfingers 7.12502
lthumb -11.316 63.0114
rfemur -80.2588 -8.74548 5.8686
rtibia 59.3173
rfoot -23.6225 -8.78128
rtoes -9.88437
lfemur -80.1971 2.54151 -15.4153
ltibia 49.4631
lfoot -5.93993 -7.16041
ltoes -35.5502
1001
root 6.05721 16.5137 -20.8225 42.6783 8.84668 8.04752
lowerback 33.5596 0.0407945 1.64037
upperback -0.954042 0.989238 1.36519
thorax -18.6926 0.339517 0.180441
lowerneck 13.7603 17.6034 17.0289
upperneck -26.9078 21.5401 -41.4092
head -2.39007 14.36 -17.6297
rclavicle 0 -1.74931e-014
rhumerus -44.2513 -23.9406 -33.8573
rradius 26.6981
rwrist -1.06058
rhand -43.7503 17.7053
rfingers 7.12502
rthumb -16.5808 -11.6063
lclavicle 0 -1.74931e-014
lhumerus -47.9027 6.1762 44.3606
lradius 32.413
lwrist 28.0667
lhand -38.1915 32.8136
lfingers 7.12502
lthumb -11.224 62.4934
rfemur -76.5039 -7.10847 5.62077
rtibia 59.1067
rfoot -24.6291 -8.47187
rtoes -10.3637
lfemur -75.8911 2.78193 -14.9254
ltibia 49.497
lfoot -7.50936 -6.10485
ltoes -34.2767
1002
root 6.03451 16.3722 -20.9242 45.3829 9.90976 8.94017
lowerback 31.317 -0.399871 1.57557
upperback -1.46878 0.368105 1.48885
thorax -18.3025 0.0991521 0.634158
lowerneck 13.827 17.6772 16.6046
upperneck -27.4846 21.4591 -41.2107
head -2.69277 14.3635 -17.5997
rclavicle -1.59028e-014 3.18055e-015
rhumerus -44.519 -24.4169 -34.5287
rradius 26.7322
rwrist -0.888706
rhand -43.4443 17.0252
rfingers 7.12502
rthumb -16.2862 -12.3109
lclavicle -1.59028e-014 3.18055e-015
lhumerus -47.8167 6.50934 45.3002
lradius 32.7177
lwrist 27.8604
lhand -38.0994 32.7496
lfingers 7.12502
lthumb -11.1351 62.4341
rfemur -79.8925 -8.56118 5.36145
rtibia 59.9189
rfoot -24.1647 -8.94122
rtoes -9.66141
lfemur -79.814 2.57928 -15.8353
ltibia 49.8772
lfoot -6.74408 -7.32221
ltoes -30.3831
1003
root 6.05577 16.33 -20.9342 45.8939 10.0357 9.14767
lowerback 30.7805 -0.554706 1.49523
upperback -1.47077 0.113001 1.43991
thorax -18.0495 -0.00188107 0.731987
lowerneck 14.0948 17.7154 16.1795
upperneck -28.0889 21.3282 -41.0993
head -3.04038 14.3692 -17.665
rclavicle -1.74931e-014 -3.18055e-014
rhumerus -44.5984 -24.6128 -35.3894
rradius 26.8002
rwrist -1.10874
rhand -42.6937 15.2715
rfingers 7.12502
rthumb -15.5633 -14.1223
lclavicle -1.74931e-014 -3.18055e-014
lhumerus -47.7869 6.72695 46.2757
lradius 32.873
lwrist 27.8374
lhand -38.1114 32.9904
lfingers 7.12502
lthumb -11.1467 62.6744
rfemur -80.618 -8.90423 5.16979
rtibia 60.3761
rfoot -24.227 -9.10345
rtoes -10.17
lfemur -80.5726 2.48991 -16.1447
ltibia 50.1565
lfoot -7.29359 -7.44761
ltoes -29.5355
1004
root 6.10863 16.2775 -20.9412 46.2921 9.90543 8.85846
lowerback 30.2842 -0.556541 1.78487
upperback -1.51704 0.178089 1.31205
thorax -17.8658 -0.00884007 0.399932
lowerneck 14.2267 17.6635 16.022
upperneck -28.3232 21.1891 -40.9767
head -3.22237 14.3165 -17.6923
rclavicle 1.74931e-014 2.38542e-015
rhumerus -44.9064 -24.9438 -35.9438
rradius 26.5723
rwrist -0.798289
rhand -42.0108 14.4655
rfingers 7.12502
rthumb -14.9056 -14.9782
lclavicle 1.74931e-014 2.38542e-015
lhumerus -47.6043 6.8318 47.2697
lradius 32.8882
lwrist 27.669
lhand -37.9328 33.0258
lfingers 7.12502
lthumb -10.9744 62.719
rfemur -81.5444 -9.03633 5.34566
rtibia 60.9837
rfoot -24.3744 -8.82485
rtoes -9.96535
lfemur -81.2525 2.51733 -15.9584
ltibia 50.5226
lfoot -8.13801 -6.85466
ltoes -33.9296
1005
root 6.13537 16.2539 -20.9327 46.269 9.85124 8.76745
lowerback 30.3898 -0.537628 1.7196
upperback -1.54253 0.168338 1.236
thorax -17.9477 -0.0117658 0.35614
lowerneck 14.5182 17.6632 15.8453
upperneck -28.5458 21.1541 -40.6822
head -3.43538 14.3001 -17.6473
rclavicle -1.90833e-014 -2.06736e-014
rhumerus -45.3019 -24.9673 -36.6487
rradius 26.3741
rwrist -0.515748
rhand -42.0078 15.2366
rfingers 7.12502
rthumb -14.9027 -14.2073
lclavicle -1.90833e-014 -2.06736e-014
lhumerus -47.608 7.01059 48.1813
lradius 33.1837
lwrist 27.4568
lhand -37.8433 32.5612
lfingers 7.12502
lthumb -10.8881 62.259
rfemur -81.6597 -8.99211 5.27173
rtibia 61.2508
rfoot -24.6859 -8.57887
rtoes -9.01018
lfemur -81.2247 2.59898 -16.0959
ltibia 50.6791
lfoot -8.74216 -6.64603
ltoes -37.2293
